<svg width="16" height="10" viewBox="0 0 16 10" fill="none" xmlns="http://www.w3.org/2000/svg">
<path d="M2.47519 0.121636C1.20209 0.121636 0.178796 1.09388 0.178796 2.3032V4.16077C0.178796 5.37022 1.20222 6.34234 2.47519 6.34234H4.18045C3.9985 7.55191 3.81669 8.58877 3.45294 9.79834C4.77641 9.79834 6.72704 6.01618 6.72704 4.26874V2.30317C6.72704 1.09373 5.70362 0.121605 4.43065 0.121605L2.47519 0.121636ZM11.5699 0.121636C10.2968 0.121636 9.27353 1.09388 9.27353 2.3032V4.16077C9.27353 5.37022 10.297 6.34234 11.5699 6.34234H13.2752C13.0932 7.55191 12.9114 8.58877 12.5477 9.79834C13.8712 9.79834 15.8218 6.01618 15.8218 4.26874V2.30317C15.8218 1.09373 14.7984 0.121605 13.5254 0.121605L11.5699 0.121636Z" fill="#E9A800"/>
</svg>
