<svg width="160" height="26" viewBox="0 0 160 26" fill="none" xmlns="http://www.w3.org/2000/svg">
<path d="M53.532 24.544L53.608 24.734C53.608 24.9113 53.5067 25 53.304 25H49.314C49.1113 25 48.9593 24.9113 48.858 24.734L44.64 16.412H40.688V24.658C40.688 24.886 40.574 25 40.346 25H36.888C36.6347 25 36.508 24.886 36.508 24.658V0.831999C36.508 0.603999 36.6347 0.489998 36.888 0.489998H46.388C48.7947 0.489998 50.5553 1.022 51.67 2.086C52.7847 3.15 53.342 4.822 53.342 7.102V9.8C53.342 13.3973 51.898 15.5127 49.01 16.146L53.532 24.544ZM40.688 4.29V12.612H45.4C47.0213 12.612 48.0473 12.4347 48.478 12.08C48.934 11.7253 49.162 10.9653 49.162 9.8V7.102C49.162 5.93667 48.934 5.17667 48.478 4.822C48.0473 4.46733 47.0213 4.29 45.4 4.29H40.688ZM56.9464 18.54V6.95C56.9464 4.56867 57.6177 2.846 58.9604 1.782C60.303 0.717999 62.583 0.185998 65.8004 0.185998H66.0284C69.271 0.185998 71.551 0.717999 72.8684 1.782C74.1857 2.846 74.8444 4.56867 74.8444 6.95V8.242C74.8444 8.47 74.7304 8.584 74.5024 8.584H71.0444C70.791 8.584 70.6644 8.47 70.6644 8.242V6.95C70.6644 5.78467 70.3604 4.99933 69.7524 4.594C69.1697 4.18867 67.9284 3.986 66.0284 3.986H65.8004C63.9257 3.986 62.6717 4.18867 62.0384 4.594C61.4304 4.99933 61.1264 5.78467 61.1264 6.95V18.54C61.1264 19.7053 61.4304 20.4907 62.0384 20.896C62.6717 21.3013 63.9257 21.504 65.8004 21.504H66.0284C67.9284 21.504 69.1697 21.3013 69.7524 20.896C70.3604 20.4907 70.6644 19.7053 70.6644 18.54V17.248C70.6644 17.02 70.791 16.906 71.0444 16.906H74.5024C74.7304 16.906 74.8444 17.02 74.8444 17.248V18.54C74.8444 20.9213 74.1857 22.644 72.8684 23.708C71.551 24.772 69.271 25.304 66.0284 25.304H65.8004C62.583 25.304 60.303 24.772 58.9604 23.708C57.6177 22.644 56.9464 20.9213 56.9464 18.54Z" fill="#101010"/>
<path d="M96.2556 17.438V18.616C96.2556 20.82 95.6982 22.4413 94.5836 23.48C93.4689 24.4933 91.6956 25 89.2636 25H79.1556C78.9022 25 78.7756 24.886 78.7756 24.658V0.831999C78.7756 0.603999 78.9022 0.489998 79.1556 0.489998H88.3516C90.7836 0.489998 92.5569 1.00933 93.6716 2.048C94.7862 3.06133 95.3436 4.67 95.3436 6.874V7.786C95.3436 9.12867 95.1156 10.18 94.6596 10.94C94.2289 11.6747 93.5069 12.2067 92.4936 12.536C93.8616 12.764 94.8242 13.258 95.3816 14.018C95.9642 14.778 96.2556 15.918 96.2556 17.438ZM87.4776 4.252H82.9176V10.75H87.4776C89.0482 10.75 90.0616 10.5727 90.5176 10.218C90.9989 9.86333 91.2396 9.116 91.2396 7.976V7.064C91.2396 5.89867 90.9989 5.13867 90.5176 4.784C90.0616 4.42933 89.0482 4.252 87.4776 4.252ZM92.0756 18.426V17.286C92.0756 16.146 91.8349 15.3987 91.3536 15.044C90.8976 14.6893 89.8842 14.512 88.3136 14.512H82.9176V21.238H88.3136C89.8842 21.238 90.8976 21.0607 91.3536 20.706C91.8349 20.3513 92.0756 19.5913 92.0756 18.426ZM99.7335 18.54V6.95C99.7335 4.56867 100.417 2.846 101.785 1.782C103.153 0.717999 105.509 0.185998 108.853 0.185998H109.081C112.425 0.185998 114.769 0.717999 116.111 1.782C117.479 2.846 118.163 4.56867 118.163 6.95V18.54C118.163 20.9213 117.479 22.644 116.111 23.708C114.769 24.772 112.425 25.304 109.081 25.304H108.853C105.509 25.304 103.153 24.772 101.785 23.708C100.417 22.644 99.7335 20.9213 99.7335 18.54ZM108.853 21.504H109.081C111.083 21.504 112.4 21.3013 113.033 20.896C113.667 20.4907 113.983 19.7053 113.983 18.54V6.95C113.983 5.78467 113.667 4.99933 113.033 4.594C112.4 4.18867 111.083 3.986 109.081 3.986H108.853C106.827 3.986 105.497 4.18867 104.863 4.594C104.23 4.99933 103.913 5.78467 103.913 6.95V18.54C103.913 19.7053 104.23 20.4907 104.863 20.896C105.497 21.3013 106.827 21.504 108.853 21.504ZM121.532 18.616V17.628C121.532 17.4 121.659 17.286 121.912 17.286H125.37C125.598 17.286 125.712 17.4 125.712 17.628V18.616C125.712 19.756 126.004 20.5287 126.586 20.934C127.169 21.314 128.372 21.504 130.196 21.504H130.424C132.223 21.504 133.414 21.314 133.996 20.934C134.579 20.5287 134.87 19.756 134.87 18.616V17.742C134.87 16.906 134.693 16.298 134.338 15.918C134.009 15.538 133.35 15.234 132.362 15.006L127.118 13.828C125.117 13.372 123.711 12.688 122.9 11.776C122.115 10.8387 121.722 9.47067 121.722 7.672V6.874C121.722 4.54333 122.381 2.846 123.698 1.782C125.016 0.717999 127.182 0.185998 130.196 0.185998H130.424C133.439 0.185998 135.592 0.717999 136.884 1.782C138.202 2.846 138.86 4.54333 138.86 6.874V7.862C138.86 8.09 138.746 8.204 138.518 8.204H135.06C134.807 8.204 134.68 8.09 134.68 7.862V6.874C134.68 5.734 134.402 4.974 133.844 4.594C133.287 4.18867 132.147 3.986 130.424 3.986H130.196C128.448 3.986 127.296 4.18867 126.738 4.594C126.181 4.974 125.902 5.734 125.902 6.874V7.672C125.902 8.432 126.054 8.97667 126.358 9.306C126.662 9.61 127.321 9.88867 128.334 10.142L133.616 11.32C135.618 11.7507 137.024 12.46 137.834 13.448C138.645 14.4107 139.05 15.842 139.05 17.742V18.616C139.05 20.9467 138.379 22.644 137.036 23.708C135.719 24.772 133.515 25.304 130.424 25.304H130.196C127.08 25.304 124.851 24.772 123.508 23.708C122.191 22.644 121.532 20.9467 121.532 18.616ZM141.497 18.616V17.628C141.497 17.4 141.624 17.286 141.877 17.286H145.335C145.563 17.286 145.677 17.4 145.677 17.628V18.616C145.677 19.756 145.969 20.5287 146.551 20.934C147.134 21.314 148.337 21.504 150.161 21.504H150.389C152.188 21.504 153.379 21.314 153.961 20.934C154.544 20.5287 154.835 19.756 154.835 18.616V17.742C154.835 16.906 154.658 16.298 154.303 15.918C153.974 15.538 153.315 15.234 152.327 15.006L147.083 13.828C145.082 13.372 143.676 12.688 142.865 11.776C142.08 10.8387 141.687 9.47067 141.687 7.672V6.874C141.687 4.54333 142.346 2.846 143.663 1.782C144.981 0.717999 147.147 0.185998 150.161 0.185998H150.389C153.404 0.185998 155.557 0.717999 156.849 1.782C158.167 2.846 158.825 4.54333 158.825 6.874V7.862C158.825 8.09 158.711 8.204 158.483 8.204H155.025C154.772 8.204 154.645 8.09 154.645 7.862V6.874C154.645 5.734 154.367 4.974 153.809 4.594C153.252 4.18867 152.112 3.986 150.389 3.986H150.161C148.413 3.986 147.261 4.18867 146.703 4.594C146.146 4.974 145.867 5.734 145.867 6.874V7.672C145.867 8.432 146.019 8.97667 146.323 9.306C146.627 9.61 147.286 9.88867 148.299 10.142L153.581 11.32C155.583 11.7507 156.989 12.46 157.799 13.448C158.61 14.4107 159.015 15.842 159.015 17.742V18.616C159.015 20.9467 158.344 22.644 157.001 23.708C155.684 24.772 153.48 25.304 150.389 25.304H150.161C147.045 25.304 144.816 24.772 143.473 23.708C142.156 22.644 141.497 20.9467 141.497 18.616Z" fill="#E9A800"/>
<path d="M8.34527 9.55285e-05C16.3916 0.0548859 17.3768 11.6864 17.1031 13.7664C17.1031 13.7664 18.8274 4.87166 11.7937 9.55285e-05H15.7348C20.278 9.55285e-05 24 5.82955 24 13C24 20.1705 20.3052 26 15.7348 26H8.31795C3.74744 26 0.0527191 20.1705 0.0527191 13C0.0529099 5.82955 3.77501 -0.0272728 8.34532 9.55285e-05H8.34527ZM7.90752 20.8274C10.6444 20.8274 12.8612 17.3242 12.8612 13C12.8612 8.67585 10.6444 5.17271 7.90752 5.17271C5.17064 5.17271 2.95386 8.67585 2.95386 13C2.95367 17.3242 5.17064 20.8274 7.90752 20.8274Z" fill="#E9A800"/>
<path d="M5.07285 13C5.07285 15.4291 6.2654 17.3985 7.73613 17.3985C9.20739 17.3985 10.3999 15.4291 10.3999 13C10.3999 10.571 9.20736 8.60156 7.73613 8.60156C6.26536 8.60156 5.07285 10.571 5.07285 13Z" fill="#E9A800"/>
</svg>
