<svg width="161" height="39" viewBox="0 0 161 39" fill="none" xmlns="http://www.w3.org/2000/svg">
<path d="M53.532 31.544L53.608 31.734C53.608 31.9113 53.5067 32 53.304 32H49.314C49.1113 32 48.9593 31.9113 48.858 31.734L44.64 23.412H40.688V31.658C40.688 31.886 40.574 32 40.346 32H36.888C36.6347 32 36.508 31.886 36.508 31.658V7.832C36.508 7.604 36.6347 7.49 36.888 7.49H46.388C48.7947 7.49 50.5553 8.022 51.67 9.086C52.7847 10.15 53.342 11.822 53.342 14.102V16.8C53.342 20.3973 51.898 22.5127 49.01 23.146L53.532 31.544ZM40.688 11.29V19.612H45.4C47.0213 19.612 48.0473 19.4347 48.478 19.08C48.934 18.7253 49.162 17.9653 49.162 16.8V14.102C49.162 12.9367 48.934 12.1767 48.478 11.822C48.0473 11.4673 47.0213 11.29 45.4 11.29H40.688ZM56.9464 25.54V13.95C56.9464 11.5687 57.6177 9.846 58.9604 8.782C60.303 7.718 62.583 7.186 65.8004 7.186H66.0284C69.271 7.186 71.551 7.718 72.8684 8.782C74.1857 9.846 74.8444 11.5687 74.8444 13.95V15.242C74.8444 15.47 74.7304 15.584 74.5024 15.584H71.0444C70.791 15.584 70.6644 15.47 70.6644 15.242V13.95C70.6644 12.7847 70.3604 11.9993 69.7524 11.594C69.1697 11.1887 67.9284 10.986 66.0284 10.986H65.8004C63.9257 10.986 62.6717 11.1887 62.0384 11.594C61.4304 11.9993 61.1264 12.7847 61.1264 13.95V25.54C61.1264 26.7053 61.4304 27.4907 62.0384 27.896C62.6717 28.3013 63.9257 28.504 65.8004 28.504H66.0284C67.9284 28.504 69.1697 28.3013 69.7524 27.896C70.3604 27.4907 70.6644 26.7053 70.6644 25.54V24.248C70.6644 24.02 70.791 23.906 71.0444 23.906H74.5024C74.7304 23.906 74.8444 24.02 74.8444 24.248V25.54C74.8444 27.9213 74.1857 29.644 72.8684 30.708C71.551 31.772 69.271 32.304 66.0284 32.304H65.8004C62.583 32.304 60.303 31.772 58.9604 30.708C57.6177 29.644 56.9464 27.9213 56.9464 25.54Z" fill="white"/>
<path d="M96.2556 24.438V25.616C96.2556 27.82 95.6982 29.4413 94.5836 30.48C93.4689 31.4933 91.6956 32 89.2636 32H79.1556C78.9022 32 78.7756 31.886 78.7756 31.658V7.832C78.7756 7.604 78.9022 7.49 79.1556 7.49H88.3516C90.7836 7.49 92.5569 8.00933 93.6716 9.048C94.7862 10.0613 95.3436 11.67 95.3436 13.874V14.786C95.3436 16.1287 95.1156 17.18 94.6596 17.94C94.2289 18.6747 93.5069 19.2067 92.4936 19.536C93.8616 19.764 94.8242 20.258 95.3816 21.018C95.9642 21.778 96.2556 22.918 96.2556 24.438ZM87.4776 11.252H82.9176V17.75H87.4776C89.0482 17.75 90.0616 17.5727 90.5176 17.218C90.9989 16.8633 91.2396 16.116 91.2396 14.976V14.064C91.2396 12.8987 90.9989 12.1387 90.5176 11.784C90.0616 11.4293 89.0482 11.252 87.4776 11.252ZM92.0756 25.426V24.286C92.0756 23.146 91.8349 22.3987 91.3536 22.044C90.8976 21.6893 89.8842 21.512 88.3136 21.512H82.9176V28.238H88.3136C89.8842 28.238 90.8976 28.0607 91.3536 27.706C91.8349 27.3513 92.0756 26.5913 92.0756 25.426ZM99.7335 25.54V13.95C99.7335 11.5687 100.417 9.846 101.785 8.782C103.153 7.718 105.509 7.186 108.853 7.186H109.081C112.425 7.186 114.769 7.718 116.111 8.782C117.479 9.846 118.163 11.5687 118.163 13.95V25.54C118.163 27.9213 117.479 29.644 116.111 30.708C114.769 31.772 112.425 32.304 109.081 32.304H108.853C105.509 32.304 103.153 31.772 101.785 30.708C100.417 29.644 99.7335 27.9213 99.7335 25.54ZM108.853 28.504H109.081C111.083 28.504 112.4 28.3013 113.033 27.896C113.667 27.4907 113.983 26.7053 113.983 25.54V13.95C113.983 12.7847 113.667 11.9993 113.033 11.594C112.4 11.1887 111.083 10.986 109.081 10.986H108.853C106.827 10.986 105.497 11.1887 104.863 11.594C104.23 11.9993 103.913 12.7847 103.913 13.95V25.54C103.913 26.7053 104.23 27.4907 104.863 27.896C105.497 28.3013 106.827 28.504 108.853 28.504ZM121.532 25.616V24.628C121.532 24.4 121.659 24.286 121.912 24.286H125.37C125.598 24.286 125.712 24.4 125.712 24.628V25.616C125.712 26.756 126.004 27.5287 126.586 27.934C127.169 28.314 128.372 28.504 130.196 28.504H130.424C132.223 28.504 133.414 28.314 133.996 27.934C134.579 27.5287 134.87 26.756 134.87 25.616V24.742C134.87 23.906 134.693 23.298 134.338 22.918C134.009 22.538 133.35 22.234 132.362 22.006L127.118 20.828C125.117 20.372 123.711 19.688 122.9 18.776C122.115 17.8387 121.722 16.4707 121.722 14.672V13.874C121.722 11.5433 122.381 9.846 123.698 8.782C125.016 7.718 127.182 7.186 130.196 7.186H130.424C133.439 7.186 135.592 7.718 136.884 8.782C138.202 9.846 138.86 11.5433 138.86 13.874V14.862C138.86 15.09 138.746 15.204 138.518 15.204H135.06C134.807 15.204 134.68 15.09 134.68 14.862V13.874C134.68 12.734 134.402 11.974 133.844 11.594C133.287 11.1887 132.147 10.986 130.424 10.986H130.196C128.448 10.986 127.296 11.1887 126.738 11.594C126.181 11.974 125.902 12.734 125.902 13.874V14.672C125.902 15.432 126.054 15.9767 126.358 16.306C126.662 16.61 127.321 16.8887 128.334 17.142L133.616 18.32C135.618 18.7507 137.024 19.46 137.834 20.448C138.645 21.4107 139.05 22.842 139.05 24.742V25.616C139.05 27.9467 138.379 29.644 137.036 30.708C135.719 31.772 133.515 32.304 130.424 32.304H130.196C127.08 32.304 124.851 31.772 123.508 30.708C122.191 29.644 121.532 27.9467 121.532 25.616ZM141.497 25.616V24.628C141.497 24.4 141.624 24.286 141.877 24.286H145.335C145.563 24.286 145.677 24.4 145.677 24.628V25.616C145.677 26.756 145.969 27.5287 146.551 27.934C147.134 28.314 148.337 28.504 150.161 28.504H150.389C152.188 28.504 153.379 28.314 153.961 27.934C154.544 27.5287 154.835 26.756 154.835 25.616V24.742C154.835 23.906 154.658 23.298 154.303 22.918C153.974 22.538 153.315 22.234 152.327 22.006L147.083 20.828C145.082 20.372 143.676 19.688 142.865 18.776C142.08 17.8387 141.687 16.4707 141.687 14.672V13.874C141.687 11.5433 142.346 9.846 143.663 8.782C144.981 7.718 147.147 7.186 150.161 7.186H150.389C153.404 7.186 155.557 7.718 156.849 8.782C158.167 9.846 158.825 11.5433 158.825 13.874V14.862C158.825 15.09 158.711 15.204 158.483 15.204H155.025C154.772 15.204 154.645 15.09 154.645 14.862V13.874C154.645 12.734 154.367 11.974 153.809 11.594C153.252 11.1887 152.112 10.986 150.389 10.986H150.161C148.413 10.986 147.261 11.1887 146.703 11.594C146.146 11.974 145.867 12.734 145.867 13.874V14.672C145.867 15.432 146.019 15.9767 146.323 16.306C146.627 16.61 147.286 16.8887 148.299 17.142L153.581 18.32C155.583 18.7507 156.989 19.46 157.799 20.448C158.61 21.4107 159.015 22.842 159.015 24.742V25.616C159.015 27.9467 158.344 29.644 157.001 30.708C155.684 31.772 153.48 32.304 150.389 32.304H150.161C147.045 32.304 144.816 31.772 143.473 30.708C142.156 29.644 141.497 27.9467 141.497 25.616Z" fill="#E9A800"/>
<path d="M8.34527 7.0001C16.3916 7.05489 17.3768 18.6864 17.1031 20.7664C17.1031 20.7664 18.8274 11.8717 11.7937 7.0001H15.7348C20.278 7.0001 24 12.8295 24 20C24 27.1705 20.3052 33 15.7348 33H8.31795C3.74744 33 0.0527191 27.1705 0.0527191 20C0.0529099 12.8295 3.77501 6.97273 8.34532 7.0001H8.34527ZM7.90752 27.8274C10.6444 27.8274 12.8612 24.3242 12.8612 20C12.8612 15.6759 10.6444 12.1727 7.90752 12.1727C5.17064 12.1727 2.95386 15.6759 2.95386 20C2.95367 24.3242 5.17064 27.8274 7.90752 27.8274Z" fill="#E9A800"/>
<path d="M5.07285 20C5.07285 22.4291 6.2654 24.3985 7.73613 24.3985C9.20739 24.3985 10.3999 22.4291 10.3999 20C10.3999 17.571 9.20736 15.6016 7.73613 15.6016C6.26536 15.6016 5.07285 17.571 5.07285 20Z" fill="#E9A800"/>
</svg>
