<svg width="39" height="37" viewBox="0 0 42 40" fill="none" xmlns="http://www.w3.org/2000/svg">
<path d="M20.9997 29.6994C23.2371 29.7047 25.4703 29.5255 27.6747 29.1635C26.9362 31.4663 25.9685 33.4175 24.8507 34.8062C23.6814 36.2587 22.3692 37.0718 20.9997 37.0718C19.6301 37.0718 18.3179 36.2586 17.1487 34.806C16.0309 33.4172 15.0631 31.466 14.3246 29.1635C16.529 29.5255 18.7623 29.7047 20.9997 29.6994ZM20.9997 29.6994C20.9995 29.6994 20.9993 29.6994 20.9992 29.6994L20.9997 29.4994L21.0001 29.6994C21 29.6994 20.9998 29.6994 20.9997 29.6994ZM35.2926 13.0741C31.7955 11.412 26.9994 10.378 21.6191 10.3041L22.5704 9.62642L22.5704 9.62638C23.0625 9.2755 23.167 8.60405 22.793 8.13033L22.793 8.13027C22.4241 7.66336 21.7336 7.57199 21.2473 7.9188L17.6109 10.5096L17.5919 10.5232L17.5765 10.5407L17.3948 10.748L17.3792 10.7658L17.3682 10.7867C17.2173 11.0734 17.2173 11.4117 17.3682 11.6985L17.3792 11.7194L17.3948 11.7372L17.5765 11.9445L17.5919 11.962L17.6109 11.9756L21.2462 14.5656C21.2464 14.5658 21.2466 14.5659 21.2469 14.5661C21.4388 14.7047 21.672 14.7776 21.91 14.7762L21.9107 14.7762C22.2539 14.773 22.5794 14.6198 22.7918 14.3561L22.793 14.3546C23.167 13.8809 23.0626 13.2093 22.5703 12.8588L22.5606 12.8518L22.5502 12.8461L21.7973 12.4349C26.3936 12.5251 30.6018 13.3895 33.7071 14.7168C35.3496 15.4189 36.6743 16.2465 37.5854 17.1493C38.4961 18.0518 38.9813 19.0163 38.9813 19.9997C38.9813 21.2875 38.1331 22.5307 36.6001 23.6443C35.1333 24.7098 33.0708 25.6319 30.6372 26.3348C30.9835 24.4282 31.1704 22.4989 31.1966 20.5645L31.9452 21.4971C32.107 21.7558 32.3743 21.9347 32.679 21.993C32.9881 22.0523 33.31 21.9829 33.5634 21.8C33.8172 21.6168 33.979 21.3363 34.0025 21.0278C34.0257 20.7243 33.9123 20.4277 33.6944 20.2114L30.975 16.7667L30.9604 16.7483L30.9421 16.7338L30.7238 16.5612L30.6693 16.518H30.5997H30.5514C30.281 16.4038 29.9729 16.4038 29.7026 16.518H29.6543H29.5848L29.5302 16.5612L29.312 16.7338L29.2936 16.7483L29.2791 16.7667L26.5518 20.2213L26.5518 20.2213C26.1783 20.6946 26.2822 21.3657 26.7742 21.7167C26.966 21.8552 27.1992 21.9286 27.4377 21.9269L27.4381 21.9269C27.781 21.9237 28.1067 21.7705 28.3191 21.5072L28.3204 21.5055L29.0501 20.5812C29.0159 22.7008 28.7787 24.8134 28.3409 26.8928C25.9244 27.3525 23.465 27.5803 21.0004 27.5724L20.9995 27.5724C18.559 27.5757 16.1242 27.348 13.7313 26.8928C13.2535 24.6234 13.0143 22.3143 13.0179 20V19.9997C13.0179 15.3431 13.9498 11.0552 15.4259 7.93872C16.9104 4.80432 18.906 2.92743 20.9997 2.92743C22.9177 2.92743 24.8301 4.56223 26.3677 7.51732C26.6401 8.04689 27.3037 8.25678 27.8477 8.00413L27.8478 8.00411C28.3967 7.74899 28.635 7.10975 28.3596 6.57404C26.4713 2.89962 23.8721 0.8 20.9997 0.8C18.0904 0.8 15.5373 2.965 13.7229 6.41029C11.9046 9.86285 10.8 14.6462 10.8 19.9995C10.7944 22.1231 10.9825 24.2428 11.3625 26.3351C8.92857 25.6323 6.8661 24.7101 5.39935 23.6446C3.86642 22.531 3.01838 21.2878 3.01838 20C3.01838 19.0901 3.44157 18.1829 4.26263 17.3274C5.08431 16.4713 6.29577 15.677 7.84371 15.0016L7.84374 15.0016L7.84797 14.9996C8.39723 14.7446 8.63565 14.1053 8.35979 13.5695C8.08761 13.0406 7.42558 12.8302 6.88208 13.0812C3.01995 14.7509 0.8 17.2204 0.8 20C0.8 21.9777 1.96552 23.7575 3.92986 25.2338C5.87219 26.6935 8.61747 27.8751 11.8741 28.6819C12.724 31.7764 13.9684 34.385 15.5054 36.2306C17.0618 38.0996 18.9316 39.2 21.0003 39.2C23.0691 39.2 24.9388 38.0995 26.4952 36.2305C28.0321 34.3849 29.2765 31.7763 30.1266 28.682C33.3833 27.8753 36.1284 26.6936 38.0706 25.2338C40.0347 23.7573 41.2 21.9774 41.2 19.9995C41.2 17.2194 38.9104 14.7935 35.2926 13.0741Z" fill="#E9A800" stroke="#E9A800" stroke-width="0.4"/>
</svg>
