<svg width="41" height="38" viewBox="0 0 41 38" fill="none" xmlns="http://www.w3.org/2000/svg">
<path d="M15.2874 22.1117C15.0705 22.1117 14.8667 22.2155 14.7387 22.3911L9.53156 29.5665L3.97862 29.5665C2.11036 29.5665 0.59082 31.0861 0.59082 32.9539L0.59082 33.8938C0.59082 35.7616 2.11036 37.2811 3.97862 37.2811L36.5566 37.2811C38.4249 37.2811 39.9444 35.7616 39.9444 33.8938L39.9444 32.9539C39.9444 31.0861 38.4249 29.5665 36.5566 29.5665L31.0037 29.5665L25.7965 22.3911C25.6689 22.2155 25.4652 22.1117 25.2479 22.1117L22.6247 22.1117L22.6247 15.3656C25.5498 14.367 27.5503 11.6082 27.5503 8.48232C27.5503 4.46676 24.2837 1.19971 20.2677 1.19971C16.2522 1.19971 12.9851 4.46633 12.9851 8.48232C12.9851 11.6082 14.9856 14.367 17.9103 15.366L17.9103 22.1122L15.2874 22.1117ZM36.5567 30.9219C37.6774 30.9219 38.5896 31.8338 38.5896 32.9544L38.5896 33.8943C38.5896 35.0149 37.6774 35.9267 36.5567 35.9267L3.97874 35.9271C2.85811 35.9271 1.94586 35.0153 1.94586 33.8947L1.94586 32.9548C1.94586 31.8342 2.8581 30.9224 3.97874 30.9224L36.5567 30.9219ZM14.3402 8.48177C14.3402 5.21341 16.9991 2.55419 20.2677 2.55419C23.5364 2.55419 26.1953 5.21352 26.1953 8.48177C26.1953 11.1692 24.3781 13.5239 21.7753 14.2074C21.4776 14.2856 21.2701 14.5549 21.2701 14.8628L21.2701 22.1119L19.2657 22.1119L19.2657 14.8628C19.2657 14.5549 19.0582 14.2861 18.7605 14.2074C16.1573 13.524 14.3402 11.1692 14.3402 8.48177ZM24.9026 23.4663L29.3293 29.5666L11.2064 29.5666L15.6331 23.4663L24.9026 23.4663Z" fill="#E9A800"/>
<path fill-rule="evenodd" clip-rule="evenodd" d="M15.287 21.6718L17.4699 21.6722L17.4699 15.6739C14.5313 14.5335 12.5447 11.6907 12.5447 8.48238C12.5447 4.22336 16.0087 0.759766 20.2673 0.759766C24.5263 0.759766 27.9899 4.22383 27.9899 8.48238C27.9899 11.6907 26.0033 14.5335 23.0643 15.6735L23.0643 21.6718L25.2475 21.6718C25.6055 21.6718 25.9416 21.8429 26.1521 22.1326L31.2276 29.1266L36.5562 29.1266C38.6674 29.1266 40.384 30.8431 40.384 32.9539L40.384 33.8938C40.384 36.0047 38.6674 37.7212 36.5562 37.7212L3.97819 37.7212C1.86696 37.7212 0.150391 36.0047 0.150391 33.8938L0.150391 32.9539C0.150391 30.8431 1.86696 29.1266 3.97819 29.1266L9.30679 29.1266L14.3827 22.132C14.5933 21.8431 14.9291 21.6718 15.287 21.6718ZM9.53114 29.5666L3.97819 29.5666C2.10993 29.5666 0.590391 31.0861 0.590391 32.9539L0.590391 33.8938C0.590391 35.7616 2.10993 37.2812 3.97819 37.2812L36.5562 37.2812C38.4245 37.2812 39.944 35.7616 39.944 33.8938L39.944 32.9539C39.944 31.0861 38.4245 29.5666 36.5562 29.5666L31.0033 29.5666L25.7961 22.3912C25.6685 22.2156 25.4648 22.1118 25.2475 22.1118L22.6243 22.1118L22.6243 15.3656C25.5494 14.3671 27.5499 11.6082 27.5499 8.48238C27.5499 4.46682 24.2833 1.19977 20.2673 1.19977C16.2517 1.19977 12.9847 4.46638 12.9847 8.48238C12.9847 11.6082 14.9852 14.3671 17.9099 15.3661L17.9099 22.1122L15.2869 22.1118C15.07 22.1118 14.8663 22.2156 14.7383 22.3912L9.53114 29.5666ZM21.6631 13.7819C24.0728 13.1491 25.7549 10.969 25.7549 8.48183C25.7549 5.45656 23.293 2.99425 20.2673 2.99425C17.2416 2.99425 14.7797 5.45646 14.7797 8.48183C14.7797 10.969 16.4618 13.1492 18.8718 13.7819C19.362 13.9114 19.7053 14.3546 19.7053 14.8628L19.7053 21.672L20.8296 21.672L20.8296 14.8628C20.8296 14.3551 21.172 13.911 21.6631 13.7819ZM21.7749 14.2075C24.3777 13.524 26.1949 11.1692 26.1949 8.48183C26.1949 5.21358 23.536 2.55425 20.2673 2.55425C16.9986 2.55425 14.3397 5.21347 14.3397 8.48183C14.3397 11.1692 16.1569 13.524 18.7601 14.2075C19.0578 14.2861 19.2653 14.5549 19.2653 14.8628L19.2653 22.112L21.2696 22.112L21.2696 14.8628C21.2696 14.5549 21.4772 14.2857 21.7749 14.2075ZM38.1492 32.9544C38.1492 32.0769 37.4341 31.362 36.5563 31.362L3.97831 31.3624C3.10055 31.3624 2.38543 32.0774 2.38543 32.9549L2.38543 33.8947C2.38543 34.7722 3.10056 35.4872 3.9783 35.4872L36.5563 35.4867C37.4341 35.4867 38.1492 34.7718 38.1492 33.8943L38.1492 32.9544ZM24.6778 23.9064L15.8571 23.9064L12.0689 29.1266L28.466 29.1266L24.6778 23.9064ZM24.9021 23.4664L15.6327 23.4664L11.2059 29.5666L29.3289 29.5666L24.9021 23.4664ZM38.5892 32.9544C38.5892 31.8338 37.6769 30.922 36.5563 30.922L3.97831 30.9224C2.85767 30.9224 1.94543 31.8342 1.94543 32.9549L1.94543 33.8947C1.94543 35.0154 2.85768 35.9272 3.97831 35.9272L36.5563 35.9267C37.677 35.9267 38.5892 35.0149 38.5892 33.8943L38.5892 32.9544Z" fill="#E9A800"/>
</svg>
