<svg width="43" height="31" viewBox="0 0 43 31" fill="none" xmlns="http://www.w3.org/2000/svg">
<g clip-path="url(#clip0_159_743)">
<path d="M2.6 18.86C2.35833 20.5355 -0.211657 20.1722 0.0330009 18.4858C0.587692 14.6982 2.13397 11.2239 4.3992 8.33546L5.94117 10.5886C4.22227 12.9913 3.04674 15.8086 2.6 18.86ZM17.5123 16.5232C18.0199 16.0157 18.5981 15.6319 19.2166 15.3563L10.1781 9.20728L16.3468 18.2159C16.6184 17.5995 17.0057 17.0264 17.5123 16.5232ZM23.8802 15.4016C24.4638 15.6709 25.0115 16.0455 25.4938 16.5242C27.6927 18.7158 27.6831 22.2722 25.4912 24.4658C23.3172 26.6326 19.5708 26.5224 17.5097 24.4684C17.0234 23.9837 16.6453 23.4292 16.3727 22.8354L4.17126 5.01543C3.3686 3.83227 4.80596 2.41753 5.97114 3.21989L23.8802 15.4016ZM19.3464 18.3512C18.1563 19.5366 18.1553 21.4536 19.3437 22.6398C20.5364 23.8278 22.4554 23.8405 23.6542 22.6447C24.8389 21.545 24.7765 19.4665 23.6542 18.3485C22.4622 17.1614 20.5384 17.1637 19.3464 18.3512ZM14.4238 30.9824C12.7169 30.9824 12.7169 28.3964 14.4238 28.3964L28.5756 28.3964C30.2808 28.3964 30.2808 30.9824 28.5756 30.9824L14.4238 30.9824ZM9.53379 3.60754C12.9666 1.34318 17.0857 0.0161133 21.499 0.0161133C26.9036 0.0161133 31.8683 1.99766 35.6686 5.26977C39.519 8.58228 42.1955 13.2315 42.9656 18.4854C43.2113 20.1718 40.6396 20.5354 40.3979 18.8596C39.7201 14.2306 37.3679 10.1373 33.9723 7.21768C30.6352 4.34383 26.2703 2.6019 21.4989 2.6019C17.9848 2.6019 14.6855 3.5452 11.863 5.19582L9.53379 3.60754Z" fill="#E9A800"/>
</g>
<defs>
<clipPath id="clip0_159_743">
<rect width="43" height="31" fill="white"/>
</clipPath>
</defs>
</svg>
