<svg width="40" height="30" viewBox="0 0 40 30" fill="none" xmlns="http://www.w3.org/2000/svg">
<path d="M39.5165 25.1495L30.1578 2.33275C29.9055 1.7117 29.4699 1.17995 28.9074 0.806062C28.3451 0.432174 27.6818 0.233849 27.0039 0.236242L12.9954 0.236242C12.3178 0.234145 11.6554 0.433072 11.0934 0.806661C10.5315 1.18055 10.0965 1.71205 9.8442 2.33274L0.483174 25.1495C0.0590718 26.1837 0.183536 27.3584 0.81529 28.2835C1.44704 29.2089 2.50385 29.7635 3.63432 29.7638H36.3657C37.4962 29.7635 38.553 29.2089 39.1847 28.2835C39.8165 27.3584 39.9406 26.1837 39.5165 25.1495ZM18.6401 1.57807H21.3602V10.3021H18.6401V1.57807ZM21.3602 28.4213H18.6401V19.6973H21.3602V28.4213ZM38.057 27.5334C37.6815 28.0927 37.0451 28.4265 36.3657 28.4213H22.7201V19.6973C22.7201 19.3414 22.5768 18.9998 22.3218 18.7482C22.0668 18.4965 21.7207 18.3551 21.3601 18.3551H18.64C18.2793 18.3551 17.9332 18.4965 17.6782 18.7482C17.4232 18.9998 17.2799 19.3414 17.2799 19.6973V28.4213H3.63437C2.95586 28.4213 2.32165 28.0885 1.94247 27.5334C1.56329 26.9782 1.48862 26.2729 1.74332 25.6526L11.102 2.8358C11.2535 2.4631 11.5152 2.14375 11.8528 1.91967C12.1907 1.69528 12.5887 1.57634 12.9958 1.57814H17.2799V10.3022C17.2799 10.6581 17.4232 10.9996 17.6782 11.2513C17.9332 11.503 18.2793 11.6444 18.64 11.6444H21.3601C21.7207 11.6444 22.0668 11.503 22.3218 11.2513C22.5768 10.9996 22.7201 10.6581 22.7201 10.3022V1.57814H27.0043C27.4108 1.57695 27.8085 1.69618 28.1455 1.92027C28.4827 2.14467 28.7438 2.46343 28.8953 2.83586L38.254 25.6526C38.5145 26.2722 38.4404 26.9798 38.057 27.5334Z" fill="#E9A800"/>
<path fill-rule="evenodd" clip-rule="evenodd" d="M11.0934 0.806661C11.6554 0.433072 12.3178 0.234145 12.9954 0.236242L27.0039 0.236242C27.6818 0.233849 28.3451 0.432174 28.9074 0.806062C29.4699 1.17995 29.9055 1.7117 30.1578 2.33275L39.5165 25.1495C39.9406 26.1837 39.8165 27.3584 39.1847 28.2835C38.553 29.2089 37.4962 29.7635 36.3657 29.7638H3.63432C2.50385 29.7635 1.44704 29.2089 0.81529 28.2835C0.183536 27.3584 0.0590718 26.1837 0.483174 25.1495L9.8442 2.33274C10.0965 1.71205 10.5315 1.18055 11.0934 0.806661ZM9.62683 2.24335L0.2661 25.0594C-0.188386 26.1676 -0.0548026 27.4266 0.621706 28.4172C1.29797 29.4078 2.42772 29.9997 3.63426 30H36.3657C37.5723 29.9997 38.7021 29.4079 39.3783 28.4172C40.0548 27.4265 40.1884 26.1677 39.7339 25.0594L30.3752 2.2434C30.3752 2.24347 30.3752 2.24333 30.3752 2.2434C30.1048 1.57793 29.6383 1.00873 29.0369 0.60901C28.4358 0.209288 27.7272 -0.00245055 27.0035 2.13994e-05L12.9957 2.13754e-05C12.2722 -0.00214488 11.5646 0.210288 10.9639 0.609589C10.3632 1.00931 9.89717 1.57837 9.62683 2.24335C9.62687 2.24324 9.62679 2.24345 9.62683 2.24335ZM38.057 27.5334C38.0674 27.5183 38.0777 27.5031 38.0877 27.4878C38.4442 26.9413 38.5074 26.2553 38.254 25.6526L28.8953 2.83586C28.7438 2.46343 28.4827 2.14467 28.1455 1.92027C27.8085 1.69618 27.4108 1.57695 27.0043 1.57814H22.7201V10.3022C22.7201 10.6581 22.5768 10.9996 22.3218 11.2513C22.0668 11.503 21.7207 11.6444 21.3601 11.6444H18.64C18.2793 11.6444 17.9332 11.503 17.6782 11.2513C17.4232 10.9996 17.2799 10.6581 17.2799 10.3022V1.57814H12.9958C12.5887 1.57634 12.1907 1.69528 11.8528 1.91967C11.5152 2.14375 11.2535 2.4631 11.102 2.8358L1.74332 25.6526C1.48862 26.2729 1.56329 26.9782 1.94247 27.5334C2.32165 28.0885 2.95586 28.4213 3.63437 28.4213H17.2799V19.6973C17.2799 19.3414 17.4232 18.9998 17.6782 18.7482C17.9332 18.4965 18.2793 18.3551 18.64 18.3551H21.3601C21.7207 18.3551 22.0668 18.4965 22.3218 18.7482C22.5768 18.9998 22.7201 19.3414 22.7201 19.6973V28.4213H36.3657C37.026 28.4263 37.6456 28.1112 38.0247 27.5801C38.0356 27.5647 38.0464 27.5491 38.057 27.5334ZM37.8754 27.4061L37.8643 27.3984C38.2018 26.9111 38.2667 26.2892 38.0377 25.7446L38.0369 25.7427L28.678 2.92531C28.5446 2.59731 28.3143 2.31583 28.0159 2.1173C27.7178 1.91907 27.3655 1.8133 27.005 1.81436L27.0043 1.81436L22.955 1.81436V10.3022C22.955 10.7222 22.7858 11.1243 22.4863 11.4199C22.1869 11.7154 21.7815 11.8806 21.3601 11.8806H18.64C18.2185 11.8806 17.8132 11.7154 17.5138 11.4199C17.2142 11.1243 17.0451 10.7222 17.0451 10.3022V1.81436H12.9947C12.6337 1.81276 12.2811 1.91825 11.9822 2.11681C11.6836 2.31497 11.4528 2.597 11.3194 2.92519L11.3191 2.92589L1.9604 25.7427C1.73614 26.2889 1.80163 26.91 2.13602 27.3996C2.4707 27.8896 3.03197 28.1851 3.63437 28.1851H17.0451V19.6973C17.0451 19.2773 17.2142 18.8752 17.5138 18.5795C17.8132 18.2841 18.2185 18.1189 18.64 18.1189H21.3601C21.7816 18.1189 22.1869 18.2841 22.4863 18.5795C22.7858 18.8752 22.955 19.2773 22.955 19.6973V28.1851H36.3675C36.9696 28.1897 37.5316 27.8938 37.8624 27.4011L37.8754 27.4061ZM21.1254 1.81429H18.875V10.0659H21.1254V1.81429ZM18.875 28.1851H21.1254V19.9335H18.875V28.1851ZM18.6401 1.57807V10.3021H21.3602V1.57807H18.6401ZM21.3602 28.4213V19.6973H18.6401V28.4213H21.3602Z" fill="#E9A800"/>
</svg>
